# xmcd CD database file
#
# Track frame offsets:
#	150
#	16252
#	43454
#	61976
#	76594
#	89419
#	100068
#	115968
#	137865
#	151590
#	164192
#	181064
#	202211
#	217131
#	234563
#	258277
#	280834
#	302814
#
# Disc length: 4375 seconds
#
# Revision: 2
# Processed by: cddbd v1.5.1PL0 Copyright (c) Steve Scherf et al.
# Submitted via: CDex 1.51
#
DISCID=fe111512
DTITLE=Vince Weber - The Best Yet 1
DYEAR=1975
DGENRE=Boogie Woogie
TTITLE0=I'm the Boogie Man
TTITLE1=Boogie Woogie Runner
TTITLE2=Roll 'em Pete
TTITLE3=Speed Freak
TTITLE4=I've Got To Move
TTITLE5=Keep A-Knockin'
TTITLE6=I used to be happy
TTITLE7=Nobody Knows You When you're...
TTITLE8=My Life is a Boogie
TTITLE9=Cherry Red
TTITLE10=Let's Boogie
TTITLE11=Vince The Prince
TTITLE12=What's Wrong with me
TTITLE13=Kiddin' Music
TTITLE14=Everythuing But Fight
TTITLE15=I've Got My Mojo Working
TTITLE16=White Man's Swing
TTITLE17=Never Blue For Long
EXTD=YEAR: 1975
EXTT0=
EXTT1=
EXTT2=
EXTT3=
EXTT4=
EXTT5=
EXTT6=
EXTT7=
EXTT8=
EXTT9=
EXTT10=
EXTT11=
EXTT12=
EXTT13=
EXTT14=
EXTT15=
EXTT16=
EXTT17=
PLAYORDER=
